<mxfile host="Electron" agent="Mozilla/5.0 (X11; Linux x86_64) AppleWebKit/537.36 (KHTML, like Gecko) draw.io/26.0.9 Chrome/128.0.6613.186 Electron/32.2.5 Safari/537.36" version="26.0.9">
  <diagram name="Page-1" id="bzRc2IGRLDIGMu-SERWd">
    <mxGraphModel dx="1674" dy="828" grid="1" gridSize="10" guides="1" tooltips="1" connect="1" arrows="1" fold="1" page="1" pageScale="1" pageWidth="850" pageHeight="1100" math="0" shadow="0">
      <root>
        <mxCell id="0" />
        <mxCell id="1" parent="0" />
        <mxCell id="8I4H7AUDC2zuTTedGM22-3" value="" style="edgeStyle=orthogonalEdgeStyle;rounded=0;orthogonalLoop=1;jettySize=auto;html=1;" edge="1" parent="1" source="8I4H7AUDC2zuTTedGM22-1" target="8I4H7AUDC2zuTTedGM22-2">
          <mxGeometry relative="1" as="geometry" />
        </mxCell>
        <mxCell id="8I4H7AUDC2zuTTedGM22-1" value="Even or Odd" style="rounded=1;whiteSpace=wrap;html=1;arcSize=50;" vertex="1" parent="1">
          <mxGeometry x="365" y="50" width="120" height="60" as="geometry" />
        </mxCell>
        <mxCell id="8I4H7AUDC2zuTTedGM22-5" value="" style="edgeStyle=orthogonalEdgeStyle;rounded=0;orthogonalLoop=1;jettySize=auto;html=1;" edge="1" parent="1" source="8I4H7AUDC2zuTTedGM22-2" target="8I4H7AUDC2zuTTedGM22-4">
          <mxGeometry relative="1" as="geometry" />
        </mxCell>
        <mxCell id="8I4H7AUDC2zuTTedGM22-2" value="Enter your number &amp;gt;&amp;gt;&amp;gt;&amp;nbsp;" style="shape=parallelogram;perimeter=parallelogramPerimeter;whiteSpace=wrap;html=1;fixedSize=1;" vertex="1" parent="1">
          <mxGeometry x="348" y="180" width="155" height="60" as="geometry" />
        </mxCell>
        <mxCell id="8I4H7AUDC2zuTTedGM22-7" value="" style="edgeStyle=orthogonalEdgeStyle;rounded=0;orthogonalLoop=1;jettySize=auto;html=1;" edge="1" parent="1" source="8I4H7AUDC2zuTTedGM22-4" target="8I4H7AUDC2zuTTedGM22-6">
          <mxGeometry relative="1" as="geometry" />
        </mxCell>
        <mxCell id="8I4H7AUDC2zuTTedGM22-4" value="num" style="shape=parallelogram;perimeter=parallelogramPerimeter;whiteSpace=wrap;html=1;fixedSize=1;" vertex="1" parent="1">
          <mxGeometry x="366" y="310" width="120" height="60" as="geometry" />
        </mxCell>
        <mxCell id="8I4H7AUDC2zuTTedGM22-11" style="edgeStyle=orthogonalEdgeStyle;rounded=0;orthogonalLoop=1;jettySize=auto;html=1;entryX=0.5;entryY=0;entryDx=0;entryDy=0;" edge="1" parent="1" source="8I4H7AUDC2zuTTedGM22-6" target="8I4H7AUDC2zuTTedGM22-10">
          <mxGeometry relative="1" as="geometry" />
        </mxCell>
        <mxCell id="8I4H7AUDC2zuTTedGM22-12" style="edgeStyle=orthogonalEdgeStyle;rounded=0;orthogonalLoop=1;jettySize=auto;html=1;entryX=0.5;entryY=0;entryDx=0;entryDy=0;" edge="1" parent="1" source="8I4H7AUDC2zuTTedGM22-6" target="8I4H7AUDC2zuTTedGM22-8">
          <mxGeometry relative="1" as="geometry" />
        </mxCell>
        <mxCell id="8I4H7AUDC2zuTTedGM22-6" value="num % 2 == 0&amp;nbsp;" style="rhombus;whiteSpace=wrap;html=1;" vertex="1" parent="1">
          <mxGeometry x="309" y="440" width="234" height="80" as="geometry" />
        </mxCell>
        <mxCell id="8I4H7AUDC2zuTTedGM22-15" style="edgeStyle=orthogonalEdgeStyle;rounded=0;orthogonalLoop=1;jettySize=auto;html=1;entryX=0.5;entryY=0;entryDx=0;entryDy=0;" edge="1" parent="1" source="8I4H7AUDC2zuTTedGM22-8" target="8I4H7AUDC2zuTTedGM22-13">
          <mxGeometry relative="1" as="geometry">
            <Array as="points">
              <mxPoint x="620" y="650" />
              <mxPoint x="425" y="650" />
            </Array>
          </mxGeometry>
        </mxCell>
        <mxCell id="8I4H7AUDC2zuTTedGM22-8" value="Odd" style="shape=parallelogram;perimeter=parallelogramPerimeter;whiteSpace=wrap;html=1;fixedSize=1;" vertex="1" parent="1">
          <mxGeometry x="560" y="570" width="120" height="60" as="geometry" />
        </mxCell>
        <mxCell id="8I4H7AUDC2zuTTedGM22-14" style="edgeStyle=orthogonalEdgeStyle;rounded=0;orthogonalLoop=1;jettySize=auto;html=1;entryX=0.5;entryY=0;entryDx=0;entryDy=0;" edge="1" parent="1" source="8I4H7AUDC2zuTTedGM22-10" target="8I4H7AUDC2zuTTedGM22-13">
          <mxGeometry relative="1" as="geometry">
            <Array as="points">
              <mxPoint x="220" y="650" />
              <mxPoint x="425" y="650" />
            </Array>
          </mxGeometry>
        </mxCell>
        <mxCell id="8I4H7AUDC2zuTTedGM22-10" value="Even&amp;nbsp;" style="shape=parallelogram;perimeter=parallelogramPerimeter;whiteSpace=wrap;html=1;fixedSize=1;" vertex="1" parent="1">
          <mxGeometry x="160" y="570" width="120" height="60" as="geometry" />
        </mxCell>
        <mxCell id="8I4H7AUDC2zuTTedGM22-13" value="END" style="rounded=1;whiteSpace=wrap;html=1;arcSize=50;" vertex="1" parent="1">
          <mxGeometry x="365" y="680" width="120" height="60" as="geometry" />
        </mxCell>
      </root>
    </mxGraphModel>
  </diagram>
</mxfile>
